# xmcd
#
# Track frame offsets: 
#        182
#        19155
#        47887
#        80275
#        91947
#        113660
#        131727
#        153222
#        181667
#
# Disc length: 2874 seconds
#
# Revision: 5
# Processed by: cddbd v1.5.2PL0 Copyright (c) Steve Scherf et al.
# Submitted via: ExactAudioCopyFreeDBPlugin 1.0
#
DISCID=620b3809
DTITLE=Lightnin' Hopkins - Texas Blues - The Blues Collection Disc 31
DYEAR=1900
DGENRE=Blues
TTITLE0=Black cat blues
TTITLE1=Take it easy
TTITLE2=Mighty crazy
TTITLE3=Lightnin' piano boogie
TTITLE4=Your own fault, baby, to treat me the way you do
TTITLE5=I've had my fun if I don't get well no more
TTITLE6=The trouble blues
TTITLE7=Wonder why
TTITLE8=Mister Charlie
EXTD=
EXTT0=
EXTT1=
EXTT2=
EXTT3=
EXTT4=
EXTT5=
EXTT6=
EXTT7=
EXTT8=
PLAYORDER=
